<svg width="200" height="200" viewBox="0 0 200 200" fill="none" xmlns="http://www.w3.org/2000/svg">
<rect width="200" height="200" rx="48" fill="#F7052D"/>
<path d="M62.8862 89.9356C42.0304 99.3402 27.4118 106.211 27.1195 106.747C26.486 107.916 27.0707 109.476 28.4351 110.109C29.361 110.548 34.0876 108.696 60.8883 97.4398C78.1382 90.228 92.3182 84.3318 92.367 84.3805C92.4644 84.4293 88.761 92.372 84.1806 101.972C75.0683 121.171 74.6785 122.389 77.1149 124.484C77.9433 125.166 79.0641 125.605 80.0874 125.605C81.0132 125.605 98.7991 120.878 119.655 115.128C167.263 101.923 166.727 102.069 168.968 100.607C174.572 96.9038 174.28 86.9144 168.432 82.9187C166.727 81.7005 165.947 81.5055 163.462 81.5543C160.684 81.603 158.248 82.5776 126.233 96.319C107.375 104.408 91.7822 110.986 91.5873 110.889C91.3924 110.791 93.7801 103.628 96.9474 94.9059C100.115 86.1835 102.697 78.2895 102.746 77.3149C102.746 75.2196 101.528 73.9526 99.53 74.0014C98.7504 74.0014 82.2314 81.2132 62.8862 89.9356Z" fill="white"/>
</svg>
